<svg width="48" height="38" viewBox="0 0 48 38" fill="none" xmlns="http://www.w3.org/2000/svg">
<path d="M46.5071 21.5735C47.2445 20.8352 47.6587 19.8345 47.6587 18.791C47.6587 17.7476 47.2445 16.7468 46.5071 16.0085L31.6601 1.15364C30.9215 0.414975 29.9196 -7.86405e-07 28.875 -8.2106e-07C27.8304 -8.55715e-07 26.8285 0.414975 26.0899 1.15364C25.3512 1.8923 24.9362 2.89414 24.9362 3.93876C24.9362 4.98339 25.3512 5.98522 26.0899 6.72389L34.2169 14.8535L3.9375 14.8535C2.89321 14.8535 1.8917 15.2684 1.15327 16.0068C0.414844 16.7452 -7.75734e-07 17.7467 -8.21381e-07 18.791C-8.67029e-07 19.8353 0.414844 20.8368 1.15327 21.5752C1.8917 22.3137 2.89321 22.7285 3.9375 22.7285L34.2169 22.7285L26.0899 30.8555C25.7241 31.2213 25.434 31.6555 25.2361 32.1333C25.0381 32.6112 24.9362 33.1234 24.9362 33.6406C24.9362 34.1579 25.0381 34.6701 25.2361 35.1479C25.434 35.6258 25.7241 36.06 26.0899 36.4258C26.4556 36.7915 26.8898 37.0816 27.3677 37.2796C27.8456 37.4775 28.3578 37.5794 28.875 37.5794C29.3922 37.5794 29.9044 37.4775 30.3823 37.2796C30.8602 37.0816 31.2944 36.7915 31.6601 36.4258L46.5071 21.5735Z" fill="#110F0E"/>
</svg>
